<svg xmlns="http://www.w3.org/2000/svg" viewBox="0 0 48 48">
  <path fill="#EA4335" d="M24 20v8.8h12.3C35.4 32.9 30.4 36 24 36 15.7 36 9 29.3 9 21S15.7 6 24 6c4.1 0 7.5 1.5 10.1 3.9l5.9-5.9C35.7 1.3 30.3 0 24 0 10.7 0 0 10.7 0 24s10.7 24 24 24c12.4 0 23-9 23-24 0-1.3-.1-2.3-.3-3.3H24z"/>
  <path fill="#34A853" d="M4.7 14.6 11.6 20C13.2 15.6 18.1 12 24 12c4.1 0 7.5 1.9 9.8 4.8l6-6C36.7 6.6 30.9 4 24 4 15.5 4 8.4 8.9 4.7 14.6z"/>
  <path fill="#FBBC05" d="M24 44c6.3 0 12-2.1 16.4-6L33 32.5C30.9 34.1 27.8 35 24 35c-6.4 0-11.4-4.3-13.2-10.1l-6.9 5.3C7.6 37.6 15 44 24 44z"/>
  <path fill="#4285F4" d="M47 24c0-1.5-.1-2.6-.3-3.6H24v8.1h13.1C36.6 32.4 34 35 30.4 37.2l6.6 5.1C42.6 38.6 47 32.2 47 24z"/>
</svg>

